<svg width="626" height="601" viewBox="0 0 626 601" fill="none" xmlns="http://www.w3.org/2000/svg">
<path fill-rule="evenodd" clip-rule="evenodd" d="M544.469 79.9371C544.178 97.5115 538.143 113.643 528.183 126.574C546.01 134.841 562.33 147.093 575.736 163.2C624.125 221.342 616.224 307.707 558.087 356.101C522.872 385.415 477.303 394.073 436.089 383.422C428.725 435.262 402.843 484.647 359.433 520.782C266.54 598.108 128.556 585.482 51.2374 492.58C-26.0815 399.679 -13.4561 261.682 79.4369 184.356C159.866 117.405 274.098 117.887 353.489 179.522C361.132 166.983 370.937 155.469 382.853 145.55C390.223 139.415 398.048 134.184 406.19 129.846C394.092 115.759 386.908 97.3564 387.24 77.3287C387.96 33.907 423.741 -0.709258 467.159 0.0110401C510.576 0.731338 545.189 36.5155 544.469 79.9371Z" fill="url(#paint0_linear_75_8947)"/>
<path fill-rule="evenodd" clip-rule="evenodd" d="M130.301 245.48L228.476 276.546L241.366 378.929L143.031 347.672L130.301 245.48Z" fill="black"/>
<path d="M354.587 240.142C354.575 240.127 354.562 240.112 354.55 240.097L354.549 240.098C351.577 236.589 346.324 236.124 342.782 239.072C339.24 242.021 338.744 247.271 341.656 250.83L341.655 250.831C397.84 318.34 388.665 418.617 321.163 474.808C253.661 530.998 153.392 521.823 97.2073 454.314L97.2062 454.315C94.234 450.806 88.982 450.341 85.4398 453.289C81.8975 456.238 81.4017 461.487 84.3132 465.047L84.3121 465.048C84.3243 465.063 84.3373 465.079 84.3495 465.093C84.3523 465.097 84.356 465.101 84.3588 465.104C84.3644 465.111 84.3691 465.117 84.3747 465.123C146.499 539.686 257.297 549.802 331.896 487.704C406.495 425.606 416.656 314.802 354.612 240.172C354.607 240.166 354.602 240.16 354.596 240.153C354.594 240.15 354.59 240.145 354.587 240.142Z" fill="black"/>
<path fill-rule="evenodd" clip-rule="evenodd" d="M414.691 183.802L476.133 203.244L484.2 267.32L422.658 247.758L414.691 183.802Z" fill="black"/>
<path d="M555.017 180.437L555.041 180.465L555.047 180.472L555.056 180.484C593.886 227.19 587.527 296.537 540.84 335.401C508.163 362.601 464.388 367.663 427.727 352.252L424.124 338.948C458.69 357.108 502.244 353.865 534.122 327.329C576.368 292.163 582.111 229.404 546.948 187.154C545.125 184.926 545.436 181.641 547.653 179.796C549.87 177.95 553.157 178.241 555.017 180.437Z" fill="black"/>
<path fill-rule="evenodd" clip-rule="evenodd" d="M466.683 28.5735L486.135 60.0465L465.649 90.9468L446.198 59.384L466.683 28.5735Z" fill="black"/>
<path d="M529 79.6729L529 79.6939L529 79.6991L529 79.708C528.738 94.9617 523.346 110.133 514.156 120.895L508.434 117.08C514.791 106.908 522.742 93.5186 522.974 79.5729C523.015 77.9211 524.381 76.6078 526.036 76.6353C527.692 76.6628 529.013 78.0206 529 79.6729Z" fill="black"/>
<path d="M405.756 74.6398C407.411 74.6673 408.733 76.0251 408.72 77.6775C408.572 96.1007 416.252 108.815 427.059 120.895L421.33 123.437C409.575 111.755 402.405 95.4906 402.692 77.6126L402.692 77.6037L402.692 77.5984C402.692 77.5916 402.693 77.5843 402.693 77.5775C402.735 75.9256 404.1 74.6124 405.756 74.6398Z" fill="black"/>
<defs>
<linearGradient id="paint0_linear_75_8947" x1="453.65" y1="78.0899" x2="161.67" y2="573.388" gradientUnits="userSpaceOnUse">
<stop stop-color="#00FF38"/>
<stop offset="1" stop-color="#0019FC"/>
</linearGradient>
</defs>
</svg>
