<svg width="60" height="20" viewBox="0 0 60 20" fill="none" xmlns="http://www.w3.org/2000/svg">
<g clip-path="url(#clip0_14_9164)">
<path d="M59.3474 15.2281L59.4564 15.1209L59.3474 15.0136L58.421 14.1557L58.312 14.0485L58.203 14.1557C57.7671 14.5847 57.4401 14.7455 56.7861 14.96C56.1322 15.1745 55.6417 15.2817 54.9333 15.2817C54.2248 15.2817 53.5709 15.1745 52.9169 14.9064C52.3175 14.6383 51.7725 14.3166 51.282 13.8876C50.8461 13.4587 50.4646 12.9225 50.1921 12.3863C49.9196 11.8501 49.8107 10.9922 49.8107 10.3487C49.8107 9.70531 49.9741 9.1155 50.2466 8.52569C50.5191 7.93588 50.9006 7.4533 51.3365 7.02435C51.827 6.59539 52.372 6.27368 52.9714 6.00558C53.5709 5.73749 54.2248 5.63025 54.9333 5.63025C55.6417 5.63025 56.1322 5.73749 56.7316 6.00558C57.3856 6.27368 57.9305 6.59539 58.3665 7.02435L58.4755 7.13159L58.5845 7.02435L59.075 6.59539L59.5654 6.16644L59.6744 6.0592L59.5654 5.95196C58.966 5.36215 58.2575 4.9332 57.3856 4.61148C56.5681 4.28976 55.6962 4.12891 54.7698 4.12891C53.8434 4.12891 53.0804 4.28976 52.263 4.61148C51.4455 4.9332 50.7371 5.36215 50.1376 5.95196C49.5382 6.54178 49.0477 7.18521 48.7207 7.93588C48.3938 8.68655 48.1758 9.49084 48.1758 10.3487C48.1758 11.2067 48.3393 12.279 48.7207 13.0297C49.1022 13.7804 49.5382 14.4238 50.1376 15.0136C50.7371 15.5498 51.4455 16.0324 52.263 16.3541C53.0804 16.6758 53.9523 16.8367 54.8788 16.8367C55.8052 16.8367 56.5681 16.6758 57.3311 16.3541C58.2575 16.0324 58.748 15.7643 59.3474 15.2281Z" fill="white" stroke="white" stroke-width="0.75"/>
<path d="M34.3312 16.7301L34.3857 16.8374H34.4947H35.9661H36.2385L36.1295 16.6229L31.0614 4.07599L31.0069 3.96875H30.8979H29.4265H29.3175L29.2631 4.07599L24.1949 16.5693L24.0859 16.7838H24.3584H25.8298H25.9388L25.9933 16.6765L26.9197 14.4781C28.8816 15.5505 31.3339 15.5505 33.3502 14.4781L34.3312 16.7301ZM32.4783 13.1913C31.0069 14.21 28.9906 14.1028 27.5737 13.0304L30.135 6.48886L32.6963 12.9768L32.4783 13.1913Z" fill="white" stroke="white" stroke-width="0.75"/>
<path d="M46.9183 7.91421L47.0817 7.86059C46.7003 7.0563 46.2098 6.41287 45.5559 5.82306C44.9019 5.23324 44.1935 4.80429 43.376 4.48257C42.5586 4.16086 41.6867 4 40.7602 4H37.1635H37V4.16086V16.5469V16.7078H37.1635H40.7602C41.6867 16.7078 42.6131 16.5469 43.4305 16.2252C44.248 15.9035 45.0109 15.4209 45.6104 14.8847C46.2643 14.2949 46.7548 13.6515 47.0817 12.8472C47.4632 12.0429 47.6267 11.2386 47.6267 10.3807C47.6267 9.46917 47.4632 8.66488 47.0817 7.86059L46.9183 7.91421ZM45.5014 8.50402C45.7738 9.09383 45.9373 9.68365 45.9373 10.3807C45.9373 11.0241 45.7738 11.6676 45.5014 12.2574C45.2289 12.8472 44.8474 13.3298 44.3569 13.7587C43.8665 14.1877 43.3215 14.5094 42.6676 14.7775C42.0136 15.0456 41.3597 15.1528 40.6512 15.1528H38.5259V5.55496H40.6512C41.3597 5.55496 42.0681 5.6622 42.6676 5.9303C43.3215 6.19839 43.8665 6.52011 44.3025 6.94906C44.8474 7.37802 45.2289 7.91421 45.5014 8.50402Z" fill="white" stroke="white" stroke-width="0.75"/>
<path fill-rule="evenodd" clip-rule="evenodd" d="M10.1362 20C15.7493 20 20.2725 15.5496 20.2725 10.0268C20.2725 4.50402 15.7493 0 10.1362 0C4.52316 0 0 4.4504 0 9.97319C0 15.496 4.52316 20 10.1362 20Z" fill="white"/>
<path fill-rule="evenodd" clip-rule="evenodd" d="M10.1353 18.0155C14.6585 18.0155 18.3097 14.423 18.3097 9.97258C18.3097 5.52218 14.6585 1.92969 10.1353 1.92969C5.61216 1.92969 1.96094 5.52218 1.96094 9.97258C2.01543 14.423 5.66666 18.0155 10.1353 18.0155Z" fill="black"/>
<path fill-rule="evenodd" clip-rule="evenodd" d="M10.1343 17.2663C14.2215 17.2663 17.4912 13.9955 17.4912 10.0277C17.4912 6.00622 14.167 2.78906 10.1343 2.78906C6.0471 2.78906 2.77734 6.05984 2.77734 10.0277C2.77734 13.9955 6.1016 17.2663 10.1343 17.2663Z" fill="white"/>
<path fill-rule="evenodd" clip-rule="evenodd" d="M10.1362 9.97319C15.7493 9.97319 20.2725 9.97319 20.2725 9.97319C20.327 4.4504 15.7493 0 10.1362 0C4.52316 0 0 4.4504 0 9.97319C0 9.97319 4.52316 9.97319 10.1362 9.97319Z" fill="white"/>
<path fill-rule="evenodd" clip-rule="evenodd" d="M10.1355 3.64453L12.6968 7.61236L10.1355 11.5802L7.57422 7.61236L10.1355 3.64453Z" fill="black"/>
<path d="M2.3971 10.403C2.60778 10.403 2.77857 10.235 2.77857 10.0277C2.77857 9.82039 2.60778 9.65234 2.3971 9.65234C2.18642 9.65234 2.01562 9.82039 2.01562 10.0277C2.01562 10.235 2.18642 10.403 2.3971 10.403Z" fill="black"/>
<path d="M17.9283 10.403C18.139 10.403 18.3098 10.235 18.3098 10.0277C18.3098 9.82039 18.139 9.65234 17.9283 9.65234C17.7177 9.65234 17.5469 9.82039 17.5469 10.0277C17.5469 10.235 17.7177 10.403 17.9283 10.403Z" fill="black"/>
</g>
<defs>
<clipPath id="clip0_14_9164">
<rect width="60" height="20" fill="white"/>
</clipPath>
</defs>
</svg>
