<svg width="28" height="27" viewBox="0 0 28 27" fill="none" xmlns="http://www.w3.org/2000/svg">
<g filter="url(#filter0_d_18_241)">
<path d="M24 10H4V11H24V10Z" fill="#BFC9D8"/>
<path d="M21.2727 14H4V15H21.2727V14Z" fill="#BFC9D8"/>
<path d="M15.8182 18H4V19H15.8182V18Z" fill="#BFC9D8"/>
<path d="M10.0041 8H8.75326V4.6H5.3134V8H4V0H5.3134V3.26667H8.75326V0H10.0667V8H10.0041Z" fill="#BFC9D8"/>
<path d="M16.865 8H11.8V6.95082C12.7455 6.09836 13.3533 5.44263 13.7585 5.04918C14.7039 4 15.1767 3.08197 15.1767 2.36066C15.1767 2.03279 15.1091 1.77049 14.9065 1.63934C14.7039 1.44262 14.5013 1.37705 14.1637 1.37705C13.5559 1.37705 13.1507 1.70492 13.0156 2.42623L11.8676 1.90164C12.0026 1.31148 12.2728 0.852459 12.678 0.52459C13.0832 0.196721 13.6234 0 14.2988 0C15.0416 0 15.5819 0.196722 15.9871 0.590165C16.3923 0.983608 16.5949 1.44262 16.5949 2.03279C16.5949 2.42623 16.5273 2.88525 16.3247 3.34426C16.1221 3.80328 15.9195 4.19672 15.7169 4.52459C15.4468 4.85246 15.1767 5.18033 14.9065 5.5082C14.6364 5.83607 14.3663 6.03279 14.1637 6.29508C14.0286 6.42623 13.826 6.55738 13.6234 6.7541H17V8H16.865Z" fill="#BFC9D8"/>
</g>
<defs>
<filter id="filter0_d_18_241" x="0" y="0" width="28" height="27" filterUnits="userSpaceOnUse" color-interpolation-filters="sRGB">
<feFlood flood-opacity="0" result="BackgroundImageFix"/>
<feColorMatrix in="SourceAlpha" type="matrix" values="0 0 0 0 0 0 0 0 0 0 0 0 0 0 0 0 0 0 127 0" result="hardAlpha"/>
<feOffset dy="4"/>
<feGaussianBlur stdDeviation="2"/>
<feComposite in2="hardAlpha" operator="out"/>
<feColorMatrix type="matrix" values="0 0 0 0 0 0 0 0 0 0 0 0 0 0 0 0 0 0 0.25 0"/>
<feBlend mode="normal" in2="BackgroundImageFix" result="effect1_dropShadow_18_241"/>
<feBlend mode="normal" in="SourceGraphic" in2="effect1_dropShadow_18_241" result="shape"/>
</filter>
</defs>
</svg>
