<svg width="20" height="19" viewBox="0 0 20 19" fill="none" xmlns="http://www.w3.org/2000/svg">
<path d="M20 10H0V11H20V10Z" fill="#BFC9D8"/>
<path d="M17.2727 14H0V15H17.2727V14Z" fill="#BFC9D8"/>
<path d="M11.8182 18H0V19H11.8182V18Z" fill="#BFC9D8"/>
<path d="M6.00412 8H4.75326V4.6H1.3134V8H0V0H1.3134V3.26667H4.75326V0H6.06667V8H6.00412Z" fill="#BFC9D8"/>
<path d="M12.865 8H7.80005V6.95082C8.7455 6.09836 9.3533 5.44262 9.75849 5.04918C10.7039 4 11.1767 3.08197 11.1767 2.36066C11.1767 2.03279 11.1091 1.77049 10.9065 1.63934C10.7039 1.44262 10.5013 1.37705 10.1637 1.37705C9.55589 1.37705 9.1507 1.70492 9.01563 2.42623L7.86758 1.90164C8.00265 1.31148 8.27278 0.852459 8.67797 0.52459C9.08317 0.196721 9.62343 0 10.2988 0C11.0416 0 11.5819 0.196722 11.9871 0.590165C12.3923 0.983608 12.5949 1.44262 12.5949 2.03279C12.5949 2.42623 12.5273 2.88525 12.3247 3.34426C12.1221 3.80328 11.9195 4.19672 11.7169 4.52459C11.4468 4.85246 11.1767 5.18033 10.9065 5.5082C10.6364 5.83607 10.3663 6.03279 10.1637 6.29508C10.0286 6.42623 9.82602 6.55738 9.62343 6.7541H13V8H12.865Z" fill="#BFC9D8"/>
</svg>
