<svg width="20" height="17" viewBox="0 0 20 17" fill="none" xmlns="http://www.w3.org/2000/svg">
<path d="M20 8H0V9H20V8Z" fill="#BFC9D8"/>
<path d="M17.2727 12H0V13H17.2727V12Z" fill="#BFC9D8"/>
<path d="M11.8182 16H0V17H11.8182V16Z" fill="#BFC9D8"/>
<path d="M4.97409 5.904H3.93782V3.456H1.08808V5.904H0V0.143997H1.08808V2.496H3.93782V0.143997H5.0259V5.904H4.97409Z" fill="#BFC9D8"/>
<path d="M8.03117 6C7.56485 6 7.20215 5.904 6.83946 5.76C6.47676 5.616 6.2177 5.328 6.06226 5.04L6.6322 4.368C6.9949 4.848 7.40941 5.088 7.97935 5.088C8.29023 5.088 8.5493 4.992 8.70474 4.848C8.86018 4.704 8.96381 4.512 8.96381 4.272C8.96381 4.032 8.86018 3.792 8.65293 3.648C8.44567 3.504 8.18661 3.456 7.82391 3.456H7.35759V2.496H7.7721C8.03117 2.496 8.29023 2.4 8.44567 2.256C8.60111 2.112 8.70474 1.92 8.70474 1.68C8.70474 1.44 8.65293 1.296 8.49749 1.152C8.34205 1.008 8.18661 0.96 7.92754 0.96C7.46122 0.96 7.04671 1.152 6.73583 1.584L6.16588 0.912001C6.52858 0.336001 7.09852 0 7.97935 0C8.49749 0 8.96381 0.144001 9.27469 0.384001C9.58557 0.624001 9.74101 1.008 9.74101 1.44C9.74101 2.112 9.43013 2.544 8.80837 2.784V2.832C9.17106 2.88 9.48194 3.024 9.6892 3.312C9.89645 3.552 10.0001 3.84 10.0001 4.224C10.0001 4.752 9.79282 5.136 9.43013 5.472C9.06744 5.856 8.60111 6 8.03117 6Z" fill="#BFC9D8"/>
</svg>
