<svg width="20" height="20" viewBox="0 0 20 20" fill="none" xmlns="http://www.w3.org/2000/svg">
<path d="M20 0H0V20H20V0Z" fill="#BFC9D8"/>
<path d="M5.26062 16.7124L6.78939 15.7864C7.08528 16.3124 7.35377 16.7507 7.99487 16.7507C8.61405 16.7507 9.00309 16.5097 9.00309 15.5672V9.18362H10.8825V15.6001C10.8825 17.5453 9.74282 18.4329 8.07706 18.4329C6.57569 18.4329 5.70446 17.6549 5.26062 16.7124Z" fill="white"/>
<path d="M11.9065 16.5093L13.4353 15.6217C13.8407 16.2792 14.3613 16.7614 15.2873 16.7614C16.0654 16.7614 16.564 16.3723 16.564 15.8354C16.564 15.1888 16.0544 14.9641 15.1942 14.586L14.7229 14.3833C13.3695 13.808 12.4654 13.0792 12.4654 11.5504C12.4654 10.1422 13.5394 9.06824 15.2161 9.06824C16.4106 9.06824 17.2709 9.48468 17.89 10.5696L16.427 11.5066C16.1037 10.9313 15.7585 10.7011 15.2216 10.7011C14.6736 10.7011 14.3229 11.0518 14.3229 11.5066C14.3229 12.071 14.6736 12.3011 15.4791 12.6463L15.9503 12.8491C17.5503 13.534 18.4489 14.2299 18.4489 15.8025C18.4489 17.4956 17.1174 18.4217 15.3366 18.4217C13.5832 18.4326 12.4544 17.5997 11.9065 16.5093Z" fill="white"/>
</svg>
