<svg width="15" height="15" viewBox="0 0 15 15" fill="none" xmlns="http://www.w3.org/2000/svg">
<g filter="url(#filter0_d_18_238)">
<path d="M10.4685 4.58956C10.792 4.3308 10.8444 3.85883 10.5857 3.53538C10.3269 3.21194 9.85493 3.1595 9.53148 3.41825L10.4685 4.58956ZM7.5 6.00391L7.03148 6.58956L7.5 6.96437L7.96852 6.58956L7.5 6.00391ZM5.46852 3.41825C5.14507 3.1595 4.67311 3.21194 4.41435 3.53539C4.15559 3.85883 4.20803 4.3308 4.53148 4.58956L5.46852 3.41825ZM9.53148 3.41825L7.03148 5.41825L7.96852 6.58956L10.4685 4.58956L9.53148 3.41825ZM7.96852 5.41825L5.46852 3.41825L4.53148 4.58956L7.03148 6.58956L7.96852 5.41825Z" fill="#1380FF"/>
</g>
<defs>
<filter id="filter0_d_18_238" x="0" y="0.00390625" width="15" height="18" filterUnits="userSpaceOnUse" color-interpolation-filters="sRGB">
<feFlood flood-opacity="0" result="BackgroundImageFix"/>
<feColorMatrix in="SourceAlpha" type="matrix" values="0 0 0 0 0 0 0 0 0 0 0 0 0 0 0 0 0 0 127 0" result="hardAlpha"/>
<feOffset dy="4"/>
<feGaussianBlur stdDeviation="2"/>
<feComposite in2="hardAlpha" operator="out"/>
<feColorMatrix type="matrix" values="0 0 0 0 0 0 0 0 0 0 0 0 0 0 0 0 0 0 0.25 0"/>
<feBlend mode="normal" in2="BackgroundImageFix" result="effect1_dropShadow_18_238"/>
<feBlend mode="normal" in="SourceGraphic" in2="effect1_dropShadow_18_238" result="shape"/>
</filter>
</defs>
</svg>
