<svg width="17" height="17" viewBox="0 0 17 17" fill="none" xmlns="http://www.w3.org/2000/svg">
<path d="M14.0604 5.20625L11.7937 2.93959L12.5375 2.19584C12.7382 1.99514 12.9891 1.89775 13.2901 1.90365C13.5911 1.90955 13.842 2.01285 14.0427 2.21355L14.8042 2.975C15.0049 3.1757 15.1052 3.42361 15.1052 3.71875C15.1052 4.01389 15.0049 4.26181 14.8042 4.4625L14.0604 5.20625ZM2.65625 14.875C2.50278 14.875 2.37587 14.8248 2.27552 14.7245C2.17517 14.6241 2.125 14.4972 2.125 14.3438V12.8208C2.125 12.75 2.13681 12.6851 2.16042 12.626C2.18403 12.567 2.22535 12.508 2.28437 12.449L10.3429 4.39044C10.7334 3.99992 11.3666 3.99992 11.7571 4.39044L12.6096 5.2429C13.0001 5.63342 13.0001 6.26659 12.6096 6.65711L4.55104 14.7156C4.49201 14.7747 4.43299 14.816 4.37396 14.8396C4.31493 14.8632 4.25 14.875 4.17917 14.875H2.65625Z" fill="#606060"/>
</svg>
