<svg width="55" height="18" viewBox="0 0 55 18" fill="none" xmlns="http://www.w3.org/2000/svg">
<g clip-path="url(#clip0_431_275)">
<path d="M54.4008 13.7041L54.5007 13.6076L54.4008 13.5111L53.5516 12.739L53.4517 12.6425L53.3518 12.739C52.9522 13.125 52.6524 13.2698 52.053 13.4628C51.4535 13.6559 51.0039 13.7524 50.3545 13.7524C49.7051 13.7524 49.1057 13.6559 48.5062 13.4146C47.9567 13.1733 47.4572 12.8837 47.0076 12.4977C46.6079 12.1116 46.2582 11.6291 46.0085 11.1465C45.7587 10.6639 45.6588 9.89179 45.6588 9.3127C45.6588 8.73361 45.8087 8.20278 46.0584 7.67195C46.3082 7.14112 46.6579 6.7068 47.0575 6.32074C47.5071 5.93468 48.0067 5.64514 48.5562 5.40385C49.1057 5.16257 49.7051 5.06605 50.3545 5.06605C51.0039 5.06605 51.4535 5.16257 52.003 5.40385C52.6025 5.64514 53.102 5.93468 53.5017 6.32074L53.6016 6.41726L53.7015 6.32074L54.1511 5.93468L54.6007 5.54862L54.7006 5.45211L54.6007 5.3556C54.0512 4.82476 53.4018 4.4387 52.6025 4.14916C51.8532 3.85962 51.0539 3.71484 50.2047 3.71484C49.3554 3.71484 48.6561 3.85962 47.9067 4.14916C47.1574 4.4387 46.508 4.82476 45.9585 5.3556C45.409 5.88643 44.9594 6.46551 44.6597 7.14112C44.36 7.81672 44.1602 8.54058 44.1602 9.3127C44.1602 10.0848 44.31 11.05 44.6597 11.7256C45.0094 12.4012 45.409 12.9803 45.9585 13.5111C46.508 13.9937 47.1574 14.428 47.9067 14.7175C48.6561 15.0071 49.4553 15.1518 50.3046 15.1518C51.1538 15.1518 51.8532 15.0071 52.5525 14.7175C53.4017 14.428 53.8513 14.1867 54.4008 13.7041Z" fill="#E1E1E1" stroke="#E1E1E1" stroke-width="0.75"/>
<path d="M31.4715 15.0561L31.5215 15.1526H31.6214H32.9702H33.22L33.12 14.9595L28.4743 3.66732L28.4243 3.5708H28.3244H26.9756H26.8757L26.8258 3.66732L22.18 14.9113L22.0801 15.1043H22.3299H23.6786H23.7785L23.8285 15.0078L24.6777 13.0292C26.4761 13.9944 28.724 13.9944 30.5724 13.0292L31.4715 15.0561ZM29.7731 11.8711C28.4243 12.788 26.576 12.6914 25.2772 11.7263L27.625 5.8389L29.9729 11.678L29.7731 11.8711Z" fill="#E1E1E1" stroke="#E1E1E1" stroke-width="0.75"/>
<path d="M43.0605 7.23763L43.2104 7.18938C42.8607 6.46551 42.4111 5.88643 41.8116 5.3556C41.2122 4.82476 40.5628 4.4387 39.8134 4.14916C39.0641 3.85962 38.2648 3.71484 37.4156 3.71484H34.1186H33.9688V3.85962V15.0071V15.1518H34.1186H37.4156C38.2648 15.1518 39.1141 15.0071 39.8634 14.7175C40.6127 14.428 41.3121 13.9937 41.8616 13.5111C42.461 12.9803 42.9106 12.4012 43.2104 11.6773C43.56 10.9535 43.7099 10.2296 43.7099 9.45747C43.7099 8.6371 43.56 7.91324 43.2104 7.18938L43.0605 7.23763ZM41.7617 7.76846C42.0114 8.2993 42.1613 8.83013 42.1613 9.45747C42.1613 10.0366 42.0114 10.6156 41.7617 11.1465C41.5119 11.6773 41.1622 12.1116 40.7126 12.4977C40.263 12.8837 39.7635 13.1733 39.164 13.4146C38.5646 13.6559 37.9651 13.7524 37.3157 13.7524H35.3675V5.11431H37.3157C37.9651 5.11431 38.6145 5.21082 39.164 5.45211C39.7635 5.6934 40.263 5.98294 40.6627 6.369C41.1622 6.75506 41.5119 7.23763 41.7617 7.76846Z" fill="#E1E1E1" stroke="#E1E1E1" stroke-width="0.75"/>
<path fill-rule="evenodd" clip-rule="evenodd" d="M9.29155 18C14.4369 18 18.5831 13.9946 18.5831 9.02413C18.5831 4.05362 14.4369 0 9.29155 0C4.14623 0 0 4.00536 0 8.97587C0 13.9464 4.14623 18 9.29155 18Z" fill="#E1E1E1"/>
<path fill-rule="evenodd" clip-rule="evenodd" d="M9.29202 16.2145C13.4382 16.2145 16.7852 12.9813 16.7852 8.97591C16.7852 4.97055 13.4382 1.7373 9.29202 1.7373C5.14579 1.7373 1.79883 4.97055 1.79883 8.97591C1.84878 12.9813 5.19574 16.2145 9.29202 16.2145Z" fill="black"/>
<path fill-rule="evenodd" clip-rule="evenodd" d="M9.29075 15.5373C13.0373 15.5373 16.0346 12.5936 16.0346 9.02256C16.0346 5.40326 12.9874 2.50781 9.29075 2.50781C5.54415 2.50781 2.54688 5.45151 2.54688 9.02256C2.54687 12.5936 5.59411 15.5373 9.29075 15.5373Z" fill="#E1E1E1"/>
<path fill-rule="evenodd" clip-rule="evenodd" d="M9.29155 8.97587C14.4369 8.97587 18.5831 8.97587 18.5831 8.97587C18.6331 4.00536 14.4369 0 9.29155 0C4.14623 0 0 4.00536 0 8.97587C0 8.97587 4.14623 8.97587 9.29155 8.97587Z" fill="#E1E1E1"/>
<path fill-rule="evenodd" clip-rule="evenodd" d="M9.29122 3.28174L11.6391 6.85278L9.29122 10.4238L6.94336 6.85278L9.29122 3.28174Z" fill="black"/>
<path d="M2.19734 9.3631C2.39046 9.3631 2.54702 9.21187 2.54702 9.0253C2.54702 8.83874 2.39046 8.6875 2.19734 8.6875C2.00421 8.6875 1.84766 8.83874 1.84766 9.0253C1.84766 9.21187 2.00421 9.3631 2.19734 9.3631Z" fill="black"/>
<path d="M16.4356 9.3631C16.6287 9.3631 16.7853 9.21187 16.7853 9.0253C16.7853 8.83874 16.6287 8.6875 16.4356 8.6875C16.2425 8.6875 16.0859 8.83874 16.0859 9.0253C16.0859 9.21187 16.2425 9.3631 16.4356 9.3631Z" fill="black"/>
</g>
<defs>
<clipPath id="clip0_431_275">
<rect width="55" height="18" fill="white"/>
</clipPath>
</defs>
</svg>
