<svg width="77" height="14" viewBox="0 0 77 14" fill="none" xmlns="http://www.w3.org/2000/svg">
<g clip-path="url(#clip0_1132_221)">
<path d="M36 1.90625H37.4835V10.4615H40.3417V11.8966H36V1.90625Z" fill="black"/>
<path d="M43.5524 6.36605C44.1785 5.74511 44.9543 5.42773 45.8934 5.42773C46.8325 5.42773 47.6083 5.74511 48.2344 6.36605C48.8605 6.987 49.1735 7.78733 49.1735 8.75325C49.1735 9.70537 48.8605 10.5057 48.2344 11.1405C47.6083 11.7752 46.8325 12.0926 45.8934 12.0926C44.9543 12.0926 44.1785 11.7752 43.5524 11.1405C42.9263 10.5057 42.6133 9.70537 42.6133 8.75325C42.6133 7.78733 42.9263 7.0008 43.5524 6.36605ZM44.5732 10.2297C44.8998 10.5885 45.349 10.7817 45.8934 10.7817C46.4514 10.7817 46.887 10.6023 47.2136 10.2297C47.5403 9.87096 47.7036 9.3742 47.7036 8.76705C47.7036 8.10471 47.5266 7.59415 47.1728 7.24918C46.8189 6.90421 46.3834 6.73862 45.8798 6.73862C45.3762 6.73862 44.9407 6.90421 44.5868 7.24918C44.2329 7.59415 44.056 8.09091 44.056 8.76705C44.0696 9.388 44.2465 9.87096 44.5732 10.2297Z" fill="black"/>
<path d="M52.7399 6.36605C53.366 5.74511 54.1418 5.42773 55.0809 5.42773C56.02 5.42773 56.7958 5.74511 57.4219 6.36605C58.048 6.987 58.361 7.78733 58.361 8.75325C58.361 9.70537 58.048 10.5057 57.4219 11.1405C56.7958 11.7752 56.02 12.0926 55.0809 12.0926C54.1418 12.0926 53.366 11.7752 52.7399 11.1405C52.1138 10.5057 51.8008 9.70537 51.8008 8.75325C51.8008 7.78733 52.1138 7.0008 52.7399 6.36605ZM53.7607 10.2297C54.0873 10.5885 54.5365 10.7817 55.0809 10.7817C55.6389 10.7817 56.0745 10.6023 56.4011 10.2297C56.7278 9.87096 56.8911 9.3742 56.8911 8.76705C56.8911 8.10471 56.7141 7.59415 56.3603 7.24918C56.0064 6.90421 55.5709 6.73862 55.0673 6.73862C54.5637 6.73862 54.1282 6.90421 53.7743 7.24918C53.4204 7.59415 53.2435 8.09091 53.2435 8.76705C53.2571 9.388 53.434 9.87096 53.7607 10.2297Z" fill="black"/>
<path d="M65.8084 6.33567V1.90625H67.2375V11.8966H65.8084V11.2343C65.332 11.8 64.7196 12.0898 63.971 12.0898C63.0727 12.0898 62.3513 11.7586 61.8069 11.0963C61.2625 10.4339 61.0039 9.64739 61.0039 8.72287C61.0039 7.72936 61.2897 6.92902 61.875 6.32188C62.4466 5.71473 63.1544 5.41115 63.9982 5.41115C64.7468 5.42495 65.3592 5.72853 65.8084 6.33567ZM64.1615 6.74964C63.6579 6.74964 63.2496 6.94282 62.923 7.32919C62.6099 7.71556 62.4466 8.19852 62.4466 8.76427C62.4466 9.33002 62.6099 9.79918 62.923 10.1855C63.236 10.5719 63.6443 10.7651 64.1615 10.7651C64.6515 10.7651 65.0598 10.5857 65.4001 10.2407C65.7403 9.89577 65.9037 9.39902 65.9037 8.77807C65.9037 8.12952 65.7403 7.63277 65.4001 7.274C65.0598 6.92902 64.6379 6.74964 64.1615 6.74964Z" fill="black"/>
<path d="M71.1149 6.36605C71.741 5.74511 72.5168 5.42773 73.4559 5.42773C74.395 5.42773 75.1708 5.74511 75.7969 6.36605C76.423 6.987 76.736 7.78733 76.736 8.75325C76.736 9.70537 76.423 10.5057 75.7969 11.1405C75.1708 11.7752 74.395 12.0926 73.4559 12.0926C72.5168 12.0926 71.741 11.7752 71.1149 11.1405C70.4888 10.5057 70.1758 9.70537 70.1758 8.75325C70.1758 7.78733 70.4888 7.0008 71.1149 6.36605ZM72.1357 10.2297C72.4623 10.5885 72.9115 10.7817 73.4559 10.7817C74.0139 10.7817 74.4494 10.6023 74.7761 10.2297C75.1027 9.87096 75.2661 9.3742 75.2661 8.76705C75.2661 8.10471 75.0891 7.59415 74.7353 7.24918C74.3814 6.90421 73.9459 6.73862 73.4423 6.73862C72.9387 6.73862 72.5032 6.90421 72.1493 7.24918C71.7954 7.59415 71.6185 8.09091 71.6185 8.76705C71.6321 9.388 71.7954 9.87096 72.1357 10.2297Z" fill="black"/>
<path d="M16.1931 -0.00390625H3.95319C2.53223 -0.00390625 1.82879 1.74128 2.82768 2.77123L8.94766 8.99382C9.56669 9.62323 10.5797 9.62323 11.1987 8.99382L17.3187 2.77123C18.3316 1.74128 17.6141 -0.00390625 16.1931 -0.00390625Z" fill="#378DFF"/>
<path d="M28.8261 -0.00390625H22.9313C21.862 -0.00390625 21.3274 1.31214 22.0871 2.07029L27.9679 8.0497C28.7277 8.82216 30.0079 8.27858 30.0079 7.19141V1.212C30.022 0.539676 29.4874 -0.00390625 28.8261 -0.00390625Z" fill="#82E2FF"/>
<path d="M20.8911 4.71537C20.4269 4.24331 19.6671 4.24331 19.2029 4.71537L12.1262 11.925C11.3665 12.6975 11.9011 13.9992 12.9703 13.9992H27.1377C28.207 13.9992 28.7416 12.6831 27.9819 11.925L20.8911 4.71537Z" fill="#59D8FF"/>
<path d="M2.03999 5.93091C1.29434 5.17275 0 5.71634 0 6.8035V12.7829C0 13.4552 0.534618 13.9988 1.19586 13.9988H7.07666C8.1459 13.9988 8.68052 12.6828 7.92079 11.9246L2.03999 5.93091Z" fill="#4F2FFF"/>
</g>
<defs>
<clipPath id="clip0_1132_221">
<rect width="77" height="14" fill="white"/>
</clipPath>
</defs>
</svg>
