<svg width="85" height="23" viewBox="0 0 85 23" fill="none" xmlns="http://www.w3.org/2000/svg">
<g clip-path="url(#clip0_18_236)" filter="url(#filter0_d_18_236)">
<path d="M40.124 1.91016H41.6127V10.4654H44.4807V11.9005H40.124V1.91016Z" fill="black"/>
<path d="M47.7036 6.36984C48.3318 5.74889 49.1103 5.43152 50.0526 5.43152C50.995 5.43152 51.7735 5.74889 52.4017 6.36984C53.0299 6.99079 53.3441 7.79112 53.3441 8.75704C53.3441 9.70916 53.0299 10.5095 52.4017 11.1442C51.7735 11.779 50.995 12.0964 50.0526 12.0964C49.1103 12.0964 48.3318 11.779 47.7036 11.1442C47.0753 10.5095 46.7612 9.70916 46.7612 8.75704C46.7612 7.79112 47.0753 7.00459 47.7036 6.36984ZM48.7279 10.2335C49.0557 10.5923 49.5063 10.7855 50.0526 10.7855C50.6126 10.7855 51.0496 10.6061 51.3774 10.2335C51.7052 9.87474 51.8691 9.37798 51.8691 8.77084C51.8691 8.10849 51.6915 7.59794 51.3364 7.25296C50.9813 6.90799 50.5443 6.74241 50.039 6.74241C49.5337 6.74241 49.0966 6.90799 48.7415 7.25296C48.3865 7.59794 48.2089 8.09469 48.2089 8.77084C48.2226 9.39178 48.4001 9.87474 48.7279 10.2335Z" fill="black"/>
<path d="M56.9201 6.36984C57.5484 5.74889 58.3268 5.43152 59.2692 5.43152C60.2115 5.43152 60.99 5.74889 61.6183 6.36984C62.2465 6.99079 62.5606 7.79112 62.5606 8.75704C62.5606 9.70916 62.2465 10.5095 61.6183 11.1442C60.99 11.779 60.2115 12.0964 59.2692 12.0964C58.3268 12.0964 57.5484 11.779 56.9201 11.1442C56.2919 10.5095 55.9778 9.70916 55.9778 8.75704C55.9778 7.79112 56.2919 7.00459 56.9201 6.36984ZM57.9444 10.2335C58.2722 10.5923 58.7229 10.7855 59.2692 10.7855C59.8291 10.7855 60.2662 10.6061 60.594 10.2335C60.9217 9.87474 61.0856 9.37798 61.0856 8.77084C61.0856 8.10849 60.9081 7.59794 60.553 7.25296C60.1979 6.90799 59.7609 6.74241 59.2555 6.74241C58.7502 6.74241 58.3132 6.90799 57.9581 7.25296C57.603 7.59794 57.4255 8.09469 57.4255 8.77084C57.4391 9.39178 57.6167 9.87474 57.9444 10.2335Z" fill="black"/>
<path d="M70.0345 6.34007V1.91064H71.4686V11.901H70.0345V11.2387C69.5565 11.8044 68.942 12.0942 68.1908 12.0942C67.2894 12.0942 66.5656 11.763 66.0193 11.1007C65.473 10.4383 65.2135 9.65179 65.2135 8.72727C65.2135 7.73375 65.5003 6.93342 66.0876 6.32627C66.6612 5.71912 67.3714 5.41555 68.2181 5.41555C68.9693 5.42935 69.5838 5.73292 70.0345 6.34007ZM68.382 6.75403C67.8767 6.75403 67.467 6.94722 67.1392 7.33359C66.8251 7.71995 66.6612 8.20291 66.6612 8.76866C66.6612 9.33442 66.8251 9.80358 67.1392 10.1899C67.4533 10.5763 67.863 10.7695 68.382 10.7695C68.8737 10.7695 69.2834 10.5901 69.6248 10.2451C69.9663 9.90017 70.1301 9.40341 70.1301 8.78246C70.1301 8.13392 69.9663 7.63716 69.6248 7.27839C69.2834 6.93342 68.86 6.75403 68.382 6.75403Z" fill="black"/>
<path d="M75.3596 6.36984C75.9878 5.74889 76.7663 5.43152 77.7086 5.43152C78.651 5.43152 79.4295 5.74889 80.0577 6.36984C80.6859 6.99079 81.0001 7.79112 81.0001 8.75704C81.0001 9.70916 80.6859 10.5095 80.0577 11.1442C79.4295 11.779 78.651 12.0964 77.7086 12.0964C76.7663 12.0964 75.9878 11.779 75.3596 11.1442C74.7314 10.5095 74.4172 9.70916 74.4172 8.75704C74.4172 7.79112 74.7314 7.00459 75.3596 6.36984ZM76.3839 10.2335C76.7117 10.5923 77.1624 10.7855 77.7086 10.7855C78.2686 10.7855 78.7056 10.6061 79.0334 10.2335C79.3612 9.87474 79.5251 9.37798 79.5251 8.77084C79.5251 8.10849 79.3475 7.59794 78.9924 7.25296C78.6373 6.90799 78.2003 6.74241 77.695 6.74241C77.1897 6.74241 76.7526 6.90799 76.3975 7.25296C76.0425 7.59794 75.8649 8.09469 75.8649 8.77084C75.8786 9.39178 76.0425 9.87474 76.3839 10.2335Z" fill="black"/>
<path d="M20.2496 0H7.96747C6.54162 0 5.83575 1.74519 6.83808 2.77513L12.9791 8.99772C13.6003 9.62713 14.6168 9.62713 15.2379 8.99772L21.379 2.77513C22.3954 1.74519 21.6755 0 20.2496 0Z" fill="#378DFF"/>
<path d="M32.9261 0H27.011C25.938 0 25.4016 1.31604 26.1639 2.0742L32.065 8.05361C32.8273 8.82606 34.112 8.28248 34.112 7.19532V1.21591C34.1261 0.543583 33.5897 0 32.9261 0Z" fill="#82E2FF"/>
<path d="M24.9616 4.72007C24.4957 4.24801 23.7334 4.24801 23.2675 4.72007L16.1665 11.9297C15.4041 12.7022 15.9406 14.0039 17.0135 14.0039H31.2297C32.3027 14.0039 32.8391 12.6878 32.0768 11.9297L24.9616 4.72007Z" fill="#59D8FF"/>
<path d="M6.04702 5.93387C5.2988 5.17571 4 5.7193 4 6.80646V12.7859C4 13.4582 4.53646 14.0018 5.19998 14.0018H11.101C12.174 14.0018 12.7104 12.6857 11.9481 11.9276L6.04702 5.93387Z" fill="#4F2FFF"/>
</g>
<defs>
<filter id="filter0_d_18_236" x="0" y="0" width="85" height="22.0039" filterUnits="userSpaceOnUse" color-interpolation-filters="sRGB">
<feFlood flood-opacity="0" result="BackgroundImageFix"/>
<feColorMatrix in="SourceAlpha" type="matrix" values="0 0 0 0 0 0 0 0 0 0 0 0 0 0 0 0 0 0 127 0" result="hardAlpha"/>
<feOffset dy="4"/>
<feGaussianBlur stdDeviation="2"/>
<feComposite in2="hardAlpha" operator="out"/>
<feColorMatrix type="matrix" values="0 0 0 0 0 0 0 0 0 0 0 0 0 0 0 0 0 0 0.25 0"/>
<feBlend mode="normal" in2="BackgroundImageFix" result="effect1_dropShadow_18_236"/>
<feBlend mode="normal" in="SourceGraphic" in2="effect1_dropShadow_18_236" result="shape"/>
</filter>
<clipPath id="clip0_18_236">
<rect width="77" height="14.0039" fill="white" transform="translate(4)"/>
</clipPath>
</defs>
</svg>
