<svg width="113" height="16" viewBox="0 0 113 16" fill="none" xmlns="http://www.w3.org/2000/svg">
<path d="M44.6816 0H47.1534V13.4406H51.9155V15.6951H44.6816V0Z" fill="white"/>
<path d="M57.2659 7.00147C58.309 6.02595 59.6015 5.52734 61.1662 5.52734C62.7309 5.52734 64.0235 6.02595 65.0666 7.00147C66.1097 7.977 66.6313 9.23435 66.6313 10.7518C66.6313 12.2476 66.1097 13.505 65.0666 14.5022C64.0235 15.4994 62.7309 15.998 61.1662 15.998C59.6015 15.998 58.309 15.4994 57.2659 14.5022C56.2227 13.505 55.7012 12.2476 55.7012 10.7518C55.7012 9.23435 56.2227 7.99868 57.2659 7.00147ZM58.9666 13.0714C59.5108 13.6351 60.2592 13.9386 61.1662 13.9386C62.096 13.9386 62.8216 13.6567 63.3659 13.0714C63.9101 12.5078 64.1822 11.7274 64.1822 10.7735C64.1822 9.73295 63.8874 8.93085 63.2978 8.38889C62.7083 7.84693 61.9826 7.58679 61.1436 7.58679C60.3045 7.58679 59.5789 7.84693 58.9893 8.38889C58.3997 8.93085 58.1049 9.71127 58.1049 10.7735C58.1276 11.749 58.4224 12.5078 58.9666 13.0714Z" fill="white"/>
<path d="M72.5745 7.00147C73.6176 6.02595 74.9101 5.52734 76.4748 5.52734C78.0395 5.52734 79.3321 6.02595 80.3752 7.00147C81.4183 7.977 81.9399 9.23435 81.9399 10.7518C81.9399 12.2476 81.4183 13.505 80.3752 14.5022C79.3321 15.4994 78.0395 15.998 76.4748 15.998C74.9101 15.998 73.6176 15.4994 72.5745 14.5022C71.5313 13.505 71.0098 12.2476 71.0098 10.7518C71.0098 9.23435 71.5313 7.99868 72.5745 7.00147ZM74.2752 13.0714C74.8194 13.6351 75.5678 13.9386 76.4748 13.9386C77.4046 13.9386 78.1302 13.6567 78.6745 13.0714C79.2187 12.5078 79.4908 11.7274 79.4908 10.7735C79.4908 9.73295 79.196 8.93085 78.6064 8.38889C78.0168 7.84693 77.2912 7.58679 76.4522 7.58679C75.6131 7.58679 74.8875 7.84693 74.2979 8.38889C73.7083 8.93085 73.4135 9.71127 73.4135 10.7735C73.4362 11.749 73.731 12.5078 74.2752 13.0714Z" fill="white"/>
<path d="M94.3447 6.95876V0H96.7258V15.6951H94.3447V14.6546C93.551 15.5434 92.5306 15.9986 91.2834 15.9986C89.7867 15.9986 88.5848 15.4784 87.6778 14.4378C86.7707 13.3972 86.3398 12.1616 86.3398 10.7091C86.3398 9.14828 86.8161 7.89093 87.7912 6.93708C88.7436 5.98323 89.9228 5.50631 91.3287 5.50631C92.5759 5.52799 93.5964 6.00491 94.3447 6.95876ZM91.6008 7.60911C90.7618 7.60911 90.0815 7.91261 89.5373 8.5196C89.0157 9.1266 88.7436 9.88534 88.7436 10.7742C88.7436 11.663 89.0157 12.4 89.5373 13.007C90.0588 13.614 90.7391 13.9175 91.6008 13.9175C92.4172 13.9175 93.0975 13.6357 93.6644 13.0937C94.2313 12.5518 94.5034 11.7714 94.5034 10.7958C94.5034 9.77695 94.2313 8.99653 93.6644 8.43289C93.0975 7.89093 92.3945 7.60911 91.6008 7.60911Z" fill="white"/>
<path d="M103.186 7.00147C104.229 6.02595 105.521 5.52734 107.086 5.52734C108.651 5.52734 109.943 6.02595 110.987 7.00147C112.03 7.977 112.551 9.23435 112.551 10.7518C112.551 12.2476 112.03 13.505 110.987 14.5022C109.943 15.4994 108.651 15.998 107.086 15.998C105.521 15.998 104.229 15.4994 103.186 14.5022C102.143 13.505 101.621 12.2476 101.621 10.7518C101.621 9.23435 102.143 7.99868 103.186 7.00147ZM104.887 13.0714C105.431 13.6351 106.179 13.9386 107.086 13.9386C108.016 13.9386 108.742 13.6567 109.286 13.0714C109.83 12.5078 110.102 11.7274 110.102 10.7735C110.102 9.73295 109.807 8.93085 109.218 8.38889C108.628 7.84693 107.903 7.58679 107.063 7.58679C106.224 7.58679 105.499 7.84693 104.909 8.38889C104.32 8.93085 104.025 9.71127 104.025 10.7735C104.047 11.749 104.32 12.5078 104.887 13.0714Z" fill="white"/>
<path fill-rule="evenodd" clip-rule="evenodd" d="M4.83295 0H19.7943C21.5312 0 22.4082 1.99368 21.17 3.17028L13.6894 10.2789C12.9327 10.9979 11.6945 10.9979 10.9379 10.2789L3.45719 3.17028C2.23621 1.99368 3.09606 0 4.83295 0ZM28.0303 0H35.2358C36.044 0 36.6975 0.620983 36.6803 1.38904V8.21986C36.6803 9.46182 35.1154 10.0828 34.1868 9.20036L26.9985 2.36954C26.0698 1.50343 26.7233 0 28.0303 0ZM25.5403 5.39274C24.9728 4.85346 24.0441 4.85346 23.4766 5.39274L14.8266 13.6289C13.898 14.5114 14.5514 15.9985 15.8584 15.9985H33.1757C34.4827 15.9985 35.1362 14.495 34.2075 13.6289L25.5403 5.39274ZM0 7.77486C0 6.53289 1.58212 5.91191 2.49355 6.77802L9.68187 13.6252C10.6105 14.4913 9.95702 15.9947 8.65005 15.9947H1.46174C0.653483 15.9947 0 15.3737 0 14.6057V7.77486Z" fill="white"/>
</svg>
