<svg width="15" height="15" viewBox="0 0 15 15" fill="none" xmlns="http://www.w3.org/2000/svg">
<g filter="url(#filter0_d_29_442)">
<path d="M4.53148 5.41435C4.20803 5.67311 4.15559 6.14507 4.41435 6.46852C4.67311 6.79197 5.14507 6.84441 5.46852 6.58565L4.53148 5.41435ZM7.5 4L7.96852 3.41435L7.5 3.03953L7.03148 3.41435L7.5 4ZM9.53148 6.58565C9.85493 6.84441 10.3269 6.79197 10.5857 6.46852C10.8444 6.14507 10.792 5.67311 10.4685 5.41435L9.53148 6.58565ZM5.46852 6.58565L7.96852 4.58565L7.03148 3.41435L4.53148 5.41435L5.46852 6.58565ZM7.03148 4.58565L9.53148 6.58565L10.4685 5.41435L7.96852 3.41435L7.03148 4.58565Z" fill="#1380FF"/>
</g>
<defs>
<filter id="filter0_d_29_442" x="0" y="0" width="15" height="18" filterUnits="userSpaceOnUse" color-interpolation-filters="sRGB">
<feFlood flood-opacity="0" result="BackgroundImageFix"/>
<feColorMatrix in="SourceAlpha" type="matrix" values="0 0 0 0 0 0 0 0 0 0 0 0 0 0 0 0 0 0 127 0" result="hardAlpha"/>
<feOffset dy="4"/>
<feGaussianBlur stdDeviation="2"/>
<feComposite in2="hardAlpha" operator="out"/>
<feColorMatrix type="matrix" values="0 0 0 0 0 0 0 0 0 0 0 0 0 0 0 0 0 0 0.25 0"/>
<feBlend mode="normal" in2="BackgroundImageFix" result="effect1_dropShadow_29_442"/>
<feBlend mode="normal" in="SourceGraphic" in2="effect1_dropShadow_29_442" result="shape"/>
</filter>
</defs>
</svg>
