<svg width="22" height="22" viewBox="0 0 22 22" fill="none" xmlns="http://www.w3.org/2000/svg">
<path d="M11.0004 14.5521C10.7407 14.5521 10.523 14.4643 10.3473 14.2886C10.1716 14.1129 10.0837 13.9028 10.0837 13.6584V6.25628L8.04414 8.29587C7.86081 8.46392 7.64692 8.54795 7.40247 8.54795C7.15803 8.54795 6.95178 8.45628 6.78372 8.27295C6.60039 8.10489 6.50872 7.89482 6.50872 7.64274C6.50872 7.39066 6.60039 7.16531 6.78372 6.9667L10.3587 3.3917C10.4504 3.30003 10.5535 3.23128 10.6681 3.18545C10.7827 3.13962 10.8934 3.1167 11.0004 3.1167C11.1226 3.1167 11.2372 3.13962 11.3441 3.18545C11.4511 3.23128 11.5504 3.30003 11.6421 3.3917L15.24 6.98962C15.4233 7.17295 15.515 7.38684 15.515 7.63128C15.515 7.87573 15.4233 8.08962 15.24 8.27295C15.0719 8.45628 14.8618 8.54413 14.6098 8.53649C14.3577 8.52885 14.14 8.441 13.9566 8.27295L11.9171 6.25628V13.6584C11.9171 13.9028 11.8292 14.1129 11.6535 14.2886C11.4778 14.4643 11.2601 14.5521 11.0004 14.5521ZM4.85872 18.9521C4.35456 18.9521 3.92296 18.7726 3.56393 18.4136C3.2049 18.0545 3.02539 17.6229 3.02539 17.1188V14.1855C3.02539 13.9257 3.11324 13.708 3.28893 13.5323C3.46463 13.3566 3.68234 13.2688 3.94206 13.2688C4.20178 13.2688 4.41949 13.3566 4.59518 13.5323C4.77088 13.708 4.85872 13.9181 4.85872 14.1625V17.1188H17.1421V14.1625C17.1421 13.9181 17.2299 13.708 17.4056 13.5323C17.5813 13.3566 17.799 13.2688 18.0587 13.2688C18.3032 13.2688 18.5132 13.3566 18.6889 13.5323C18.8646 13.708 18.9525 13.9181 18.9525 14.1625V17.1188C18.9525 17.6229 18.773 18.0545 18.4139 18.4136C18.0549 18.7726 17.6309 18.9521 17.1421 18.9521H4.85872Z" fill="#1F72FF"/>
</svg>
